<svg width="240" height="240" viewBox="0 0 240 240" fill="none" xmlns="http://www.w3.org/2000/svg" role="img" aria-labelledby="title desc">
  <title id="title">Caspian Art Bureau logo concept: C L brush B</title>
  <desc id="desc">A minimal C and B monogram with a Cyrillic L-shaped center crossed by an artist brush.</desc>
  <rect width="240" height="240" fill="#EFE7DA"/>
  <path d="M73 66H58C45 66 36 76 36 90V150C36 164 45 174 58 174H73" stroke="#242424" stroke-width="12" stroke-linecap="square"/>
  <path d="M91 174L120 66L149 174" stroke="#242424" stroke-width="12" stroke-linecap="square" stroke-linejoin="miter"/>
  <g transform="rotate(-13 131 130)">
    <path d="M90 125H139V137H90V125Z" fill="#E66A2C"/>
    <path d="M160 131C149 117 139 122 139 131C139 140 149 145 160 131Z" fill="#E66A2C"/>
  </g>
  <path d="M177 66H195C207 66 215 76 215 90C215 104 207 114 195 114H177V66Z" stroke="#242424" stroke-width="12" stroke-linejoin="miter"/>
  <path d="M177 126H197C209 126 217 136 217 150C217 164 209 174 197 174H177V126Z" stroke="#242424" stroke-width="12" stroke-linejoin="miter"/>
  <path d="M177 66V174" stroke="#242424" stroke-width="12" stroke-linecap="square"/>
</svg>
